<?xml version="1.0" encoding="UTF-8" standalone="no"?>
<svg
   xmlns:dc="http://purl.org/dc/elements/1.1/"
   xmlns:cc="http://creativecommons.org/ns#"
   xmlns:rdf="http://www.w3.org/1999/02/22-rdf-syntax-ns#"
   xmlns:svg="http://www.w3.org/2000/svg"
   xmlns="http://www.w3.org/2000/svg"
   xmlns:sodipodi="http://sodipodi.sourceforge.net/DTD/sodipodi-0.dtd"
   xmlns:inkscape="http://www.inkscape.org/namespaces/inkscape"
   width="3in"
   height="3in"
   viewBox="0 0 270 270.00001"
   id="svg2"
   version="1.1"
   inkscape:version="0.91 r13725"
   sodipodi:docname="VA-051 Luther Rose.svg">
  <defs
     id="defs4">
    <inkscape:perspective
       id="perspective10"
       inkscape:persp3d-origin="372.04724 : 350.78739 : 1"
       inkscape:vp_z="744.09448 : 526.18109 : 1"
       inkscape:vp_y="0 : 1000 : 0"
       inkscape:vp_x="0 : 526.18109 : 1"
       sodipodi:type="inkscape:persp3d" />
    <inkscape:perspective
       sodipodi:type="inkscape:persp3d"
       inkscape:vp_x="0 : 0.5 : 1"
       inkscape:vp_y="0 : 1000 : 0"
       inkscape:vp_z="1 : 0.5 : 1"
       inkscape:persp3d-origin="0.5 : 0.33333333 : 1"
       id="perspective4020" />
    <inkscape:perspective
       sodipodi:type="inkscape:persp3d"
       inkscape:vp_x="0 : 0.5 : 1"
       inkscape:vp_y="0 : 1000 : 0"
       inkscape:vp_z="1 : 0.5 : 1"
       inkscape:persp3d-origin="0.5 : 0.33333333 : 1"
       id="perspective13153" />
    <inkscape:perspective
       id="perspective10-8"
       inkscape:persp3d-origin="372.04724 : 350.78739 : 1"
       inkscape:vp_z="744.09448 : 526.18109 : 1"
       inkscape:vp_y="0 : 1000 : 0"
       inkscape:vp_x="0 : 526.18109 : 1"
       sodipodi:type="inkscape:persp3d" />
    <inkscape:perspective
       sodipodi:type="inkscape:persp3d"
       inkscape:vp_x="0 : 0.5 : 1"
       inkscape:vp_y="0 : 1000 : 0"
       inkscape:vp_z="1 : 0.5 : 1"
       inkscape:persp3d-origin="0.5 : 0.33333333 : 1"
       id="perspective4020-8" />
    <inkscape:perspective
       sodipodi:type="inkscape:persp3d"
       inkscape:vp_x="0 : 0.5 : 1"
       inkscape:vp_y="0 : 1000 : 0"
       inkscape:vp_z="1 : 0.5 : 1"
       inkscape:persp3d-origin="0.5 : 0.33333333 : 1"
       id="perspective13153-7" />
  </defs>
  <sodipodi:namedview
     id="base"
     pagecolor="#eaddb6"
     bordercolor="#666666"
     borderopacity="1.0"
     inkscape:pageopacity="0"
     inkscape:pageshadow="2"
     inkscape:zoom="0.96786965"
     inkscape:cx="299.13754"
     inkscape:cy="4.4874609"
     inkscape:document-units="in"
     inkscape:current-layer="layer2"
     showgrid="true"
     units="in"
     inkscape:window-width="1920"
     inkscape:window-height="1027"
     inkscape:window-x="-8"
     inkscape:window-y="-8"
     inkscape:window-maximized="1"
     showguides="true"
     inkscape:guide-bbox="true"
     inkscape:snap-global="false"
     inkscape:snap-bbox="true"
     inkscape:bbox-nodes="true"
     fit-margin-top="0"
     fit-margin-left="0"
     fit-margin-right="0"
     fit-margin-bottom="0"
     inkscape:object-nodes="true"
     inkscape:snap-grids="true"
     inkscape:snap-to-guides="true"
     inkscape:object-paths="true">
    <inkscape:grid
       type="xygrid"
       id="grid3338"
       spacingx="11.25"
       spacingy="11.25"
       units="in"
       dotted="true"
       empspacing="2"
       visible="true"
       originx="0"
       originy="8.7984389e-013" />
    <sodipodi:guide
       position="337.5,135"
       orientation="0,1"
       id="guide5035" />
    <sodipodi:guide
       position="135,202.5"
       orientation="1,0"
       id="guide5046" />
  </sodipodi:namedview>
  <metadata
     id="metadata7">
    <rdf:RDF>
      <cc:Work
         rdf:about="">
        <dc:format>image/svg+xml</dc:format>
        <dc:type
           rdf:resource="http://purl.org/dc/dcmitype/StillImage" />
        <dc:title></dc:title>
      </cc:Work>
    </rdf:RDF>
  </metadata>
  <g
     inkscape:groupmode="layer"
     id="layer2"
     inkscape:label="Background"
     transform="translate(0,-1890)">
    <g
       id="g5803"
       transform="matrix(0.09484812,0,0,0.09378131,104.18681,2006.935)"
       style="fill:none;stroke:#800000;stroke-width:4.6262331">
      <g
         transform="translate(0,-446.005)"
         id="layer1-1"
         inkscape:label="Layer 1"
         style="fill:none;stroke:#800000;stroke-width:4.6262331" />
    </g>
    <path
       style="color:#000000;clip-rule:nonzero;display:inline;overflow:visible;visibility:visible;opacity:1;isolation:auto;mix-blend-mode:normal;color-interpolation:sRGB;color-interpolation-filters:linearRGB;solid-color:#000000;solid-opacity:1;fill:#000000;fill-opacity:1;fill-rule:nonzero;stroke:#000000;stroke-width:0.89999998;stroke-linecap:round;stroke-linejoin:miter;stroke-miterlimit:4;stroke-dasharray:none;stroke-dashoffset:0;stroke-opacity:1;color-rendering:auto;image-rendering:auto;shape-rendering:auto;text-rendering:auto;enable-background:accumulate"
       d="M 135,1890.4492 A 134.54991,134.54991 0 0 0 0.44921875,2025 134.54991,134.54991 0 0 0 135,2159.5508 134.54991,134.54991 0 0 0 269.55078,2025 134.54991,134.54991 0 0 0 135,1890.4492 Z"
       id="path15512" />
    <path
       style="color:#000000;clip-rule:nonzero;display:inline;overflow:visible;visibility:visible;opacity:1;isolation:auto;mix-blend-mode:normal;color-interpolation:sRGB;color-interpolation-filters:linearRGB;solid-color:#000000;solid-opacity:1;fill:#ffffff;fill-opacity:1;fill-rule:nonzero;stroke:#000000;stroke-width:0.89999998;stroke-linecap:round;stroke-linejoin:miter;stroke-miterlimit:4;stroke-dasharray:none;stroke-dashoffset:0;stroke-opacity:1;color-rendering:auto;image-rendering:auto;shape-rendering:auto;text-rendering:auto;enable-background:accumulate"
       d="M 135 7.0546875 C 118.04807 30.199488 81.58031 9.115813 72.902344 30.070312 C 62.481218 55.234013 108.74975 61.073031 93.056641 77.269531 C 72.803405 87.189531 81.548894 41.382478 54.396484 43.517578 C 31.785934 45.295478 40.566856 86.492791 13.316406 95.462891 C 30.089986 118.73729 -1.229691 146.90431 16.017578 161.63281 C 36.729378 179.31991 56.580421 137.12078 67.134766 157.05078 C 70.310641 179.37818 29.445894 156.90547 23.085938 183.38867 C 17.789777 205.44197 59.684702 209.82117 59.794922 238.50977 C 87.113512 229.74937 104.22517 268.24047 123.5625 256.38867 C 146.78423 242.15627 112.78393 210.23652 135 206.35742 C 157.21607 210.23652 123.21577 242.15627 146.4375 256.38867 C 165.77483 268.24047 182.88649 229.74937 210.20508 238.50977 C 210.3153 209.82117 252.21022 205.44197 246.91406 183.38867 C 240.5541 156.90547 199.68934 179.37818 202.86523 157.05078 C 213.41959 137.12078 233.27062 179.31991 253.98242 161.63281 C 271.22969 146.90431 239.91001 118.73729 256.68359 95.462891 C 229.43314 86.492791 238.21407 45.295478 215.60352 43.517578 C 188.45111 41.382478 197.19658 87.189531 176.94336 77.269531 C 161.25027 61.073031 207.51878 55.234013 197.09766 30.070312 C 188.41969 9.115813 151.95193 30.199488 135 7.0546875 z M 132.26172 18.544922 L 137.66211 18.544922 L 137.66211 75.759766 L 132.26172 75.759766 L 132.26172 18.544922 z M 109.67383 77.712891 C 119.86036 77.712891 128.96487 82.898328 135 91.048828 C 141.03514 82.898328 150.13966 77.712891 160.32617 77.712891 C 178.49736 77.712891 193.23047 94.220648 193.23047 114.58984 C 193.23047 151.65494 166.16939 173.27599 135 199.43359 C 104.12369 173.24119 76.769531 151.78934 76.769531 114.58984 C 76.769531 94.220648 91.502629 77.712891 109.67383 77.712891 z M 25.091797 96.408203 L 69.634766 110.88281 L 67.966797 116.01758 L 23.423828 101.54492 L 25.091797 96.408203 z M 244.9082 96.408203 L 246.57617 101.54492 L 202.0332 116.01758 L 200.36523 110.88281 L 244.9082 96.408203 z M 126.43945 97.111328 L 126.43945 115.95312 L 107.60352 115.95312 L 107.60352 133.08203 L 126.43945 133.08203 L 126.43945 182.07031 L 143.56055 182.07031 L 143.56055 133.08203 L 162.39648 133.08203 L 162.39648 115.95312 L 143.56055 115.95312 L 143.56055 97.111328 L 126.43945 97.111328 z M 97.962891 181.31641 L 102.33203 184.49219 L 68.703125 230.77734 L 64.333984 227.60352 L 97.962891 181.31641 z M 172.03711 181.31641 L 205.66602 227.60352 L 201.29688 230.77734 L 167.66797 184.49219 L 172.03711 181.31641 z "
       transform="translate(0,1890)"
       id="path15510" />
  </g>
  <g
     inkscape:label="Layer 1"
     inkscape:groupmode="layer"
     id="layer1"
     transform="translate(0,-782.36222)" />
</svg>
